<svg xmlns="http://www.w3.org/2000/svg" width="82.219" height="58.681" viewBox="0 0 82.219 58.681"><path d="M1076.542-7895.776a28.6,28.6,0,0,0-13.2,3.578,29.3,29.3,0,0,0-8.294,6.871,29.411,29.411,0,0,0-4.97,8.6,29.681,29.681,0,0,0-1.785,11.977,29.42,29.42,0,0,0,3.791,12.9,29.4,29.4,0,0,0,7.251,8.482,29.006,29.006,0,0,0,6.836,4.047,28.74,28.74,0,0,0,12.75,2.168,28.6,28.6,0,0,0,12.7-3.8,29.271,29.271,0,0,0,8.439-7.368,29.367,29.367,0,0,0,4.177-7.358c.1-.242.242-.634.259-.689l.007-.022h-4.689l-.014.033c-.123.3-.521,1.128-.749,1.563a25.01,25.01,0,0,1-3.462,5.016c-.293.331-.558.611-.925.982-.588.594-1.088,1.056-1.7,1.566a24.592,24.592,0,0,1-6.235,3.814,24.317,24.317,0,0,1-7.707,1.85c-.668.048-.886.055-1.778.055s-1.11-.007-1.778-.055a24.31,24.31,0,0,1-10.431-3.205,24.789,24.789,0,0,1-4.652-3.476c-.276-.262-.87-.862-1.129-1.143a24.985,24.985,0,0,1-4.58-7,25.148,25.148,0,0,1-1.983-7.756,21.477,21.477,0,0,1-.094-2.3c0-.9.006-1.121.054-1.8a25.129,25.129,0,0,1,1.417-6.733,25.2,25.2,0,0,1,1.751-3.82,25.249,25.249,0,0,1,2.337-3.437,25.276,25.276,0,0,1,3.031-3.139,24.6,24.6,0,0,1,6.118-3.905,24.414,24.414,0,0,1,5.844-1.768,24.65,24.65,0,0,1,3.275-.33c.61-.021,1.544-.011,2.2.025a24.3,24.3,0,0,1,10.832,3.23,24.792,24.792,0,0,1,4.652,3.476c.436.411,1.061,1.058,1.482,1.532a25.109,25.109,0,0,1,4.122,6.373c.042.094.084.189.092.209l.015.039h4.687l-.006-.023c-.018-.057-.2-.538-.308-.812a29.486,29.486,0,0,0-1.744-3.652,29.411,29.411,0,0,0-7.283-8.538,28.978,28.978,0,0,0-6.836-4.047A28.708,28.708,0,0,0,1076.542-7895.776Z" transform="translate(-1048.245 7895.786)" fill="#7724fb"/><path d="M3709.836-5868.692a8.874,8.874,0,0,0-6.736,3.552,8.588,8.588,0,0,0-.861,1.4,8.8,8.8,0,0,0-.883,3.161,9,9,0,0,0,.307,3.222,8.9,8.9,0,0,0,3.216,4.667,8.879,8.879,0,0,0,2.89,1.439,8.96,8.96,0,0,0,3.953.213,8.9,8.9,0,0,0,5.89-3.822,8.829,8.829,0,0,0,1.372-3.44,8.911,8.911,0,0,0,0-3.01,8.889,8.889,0,0,0-3.414-5.6,8.841,8.841,0,0,0-4.579-1.757A8.925,8.925,0,0,0,3709.836-5868.692Z" transform="translate(-3674.627 5889.017)" fill="#eb0871"/><path d="M7459.836-5842.692a8.877,8.877,0,0,0-6.735,3.552,8.6,8.6,0,0,0-.861,1.4,8.8,8.8,0,0,0-.884,3.16,9,9,0,0,0,.308,3.223,8.9,8.9,0,0,0,3.216,4.667,8.881,8.881,0,0,0,2.89,1.438,8.959,8.959,0,0,0,3.953.213,8.9,8.9,0,0,0,5.89-3.822,8.832,8.832,0,0,0,1.372-3.44,8.926,8.926,0,0,0,0-3.01,8.886,8.886,0,0,0-3.414-5.6,8.842,8.842,0,0,0-4.579-1.757A8.92,8.92,0,0,0,7459.836-5842.692Z" transform="translate(-7386.894 5863.277)" fill="#eb0871"/><path d="M5591.753-5840.245c-.964.964-1.753,1.759-1.753,1.764s1.176,1.186,2.611,2.622l2.612,2.612-2.612,2.612c-1.436,1.435-2.611,2.616-2.611,2.621s3.5,3.519,3.519,3.519,1.186-1.176,2.622-2.611l2.612-2.612,2.612,2.612c1.435,1.436,2.617,2.611,2.621,2.611s3.519-3.505,3.519-3.519-1.175-1.186-2.611-2.621l-2.612-2.612,2.612-2.612c1.436-1.436,2.611-2.616,2.611-2.622s-3.5-3.519-3.519-3.519-1.186,1.176-2.621,2.611l-2.612,2.612-2.612-2.612c-1.436-1.436-2.616-2.611-2.622-2.611S5592.719-5841.211,5591.753-5840.245Z" transform="translate(-5544.293 5862.589)" fill="#eb0871"/></svg>