<svg xmlns="http://www.w3.org/2000/svg" width="166.058" height="58.681" viewBox="0 0 166.058 58.681"><g transform="translate(0 0)"><path d="M1076.542-7895.776a28.6,28.6,0,0,0-13.2,3.578,29.3,29.3,0,0,0-8.294,6.871,29.411,29.411,0,0,0-4.97,8.6,29.681,29.681,0,0,0-1.785,11.977,29.42,29.42,0,0,0,3.791,12.9,29.4,29.4,0,0,0,7.251,8.482,29.006,29.006,0,0,0,6.836,4.047,28.74,28.74,0,0,0,12.75,2.168,28.6,28.6,0,0,0,12.7-3.8,29.271,29.271,0,0,0,8.439-7.368,29.367,29.367,0,0,0,4.177-7.358c.1-.242.242-.634.259-.689l.007-.022h-4.689l-.014.033c-.123.3-.521,1.128-.749,1.563a25.01,25.01,0,0,1-3.462,5.016c-.293.331-.558.611-.925.982-.588.594-1.088,1.056-1.7,1.566a24.592,24.592,0,0,1-6.235,3.814,24.317,24.317,0,0,1-7.707,1.85c-.668.048-.886.055-1.778.055s-1.11-.007-1.778-.055a24.31,24.31,0,0,1-10.431-3.205,24.789,24.789,0,0,1-4.652-3.476c-.276-.262-.87-.862-1.129-1.143a24.985,24.985,0,0,1-4.58-7,25.148,25.148,0,0,1-1.983-7.756,21.477,21.477,0,0,1-.094-2.3c0-.9.006-1.121.054-1.8a25.129,25.129,0,0,1,1.417-6.733,25.2,25.2,0,0,1,1.751-3.82,25.249,25.249,0,0,1,2.337-3.437,25.276,25.276,0,0,1,3.031-3.139,24.6,24.6,0,0,1,6.118-3.905,24.414,24.414,0,0,1,5.844-1.768,24.65,24.65,0,0,1,3.275-.33c.61-.021,1.544-.011,2.2.025a24.3,24.3,0,0,1,10.832,3.23,24.792,24.792,0,0,1,4.652,3.476c.436.411,1.061,1.058,1.482,1.532a25.109,25.109,0,0,1,4.122,6.373c.042.094.084.189.092.209l.015.039h4.687l-.006-.023c-.018-.057-.2-.538-.308-.812a29.486,29.486,0,0,0-1.744-3.652,29.411,29.411,0,0,0-7.283-8.538,28.978,28.978,0,0,0-6.836-4.047A28.708,28.708,0,0,0,1076.542-7895.776Z" transform="translate(-1048.245 7895.786)"/><path d="M3709.836-5868.692a8.874,8.874,0,0,0-6.736,3.552,8.588,8.588,0,0,0-.861,1.4,8.8,8.8,0,0,0-.883,3.161,9,9,0,0,0,.307,3.222,8.9,8.9,0,0,0,3.216,4.667,8.879,8.879,0,0,0,2.89,1.439,8.96,8.96,0,0,0,3.953.213,8.9,8.9,0,0,0,5.89-3.822,8.829,8.829,0,0,0,1.372-3.44,8.911,8.911,0,0,0,0-3.01,8.889,8.889,0,0,0-3.414-5.6,8.841,8.841,0,0,0-4.579-1.757A8.925,8.925,0,0,0,3709.836-5868.692Z" transform="translate(-3674.627 5889.017)"/><path d="M7459.836-5842.692a8.877,8.877,0,0,0-6.735,3.552,8.6,8.6,0,0,0-.861,1.4,8.8,8.8,0,0,0-.884,3.16,9,9,0,0,0,.308,3.223,8.9,8.9,0,0,0,3.216,4.667,8.881,8.881,0,0,0,2.89,1.438,8.959,8.959,0,0,0,3.953.213,8.9,8.9,0,0,0,5.89-3.822,8.832,8.832,0,0,0,1.372-3.44,8.926,8.926,0,0,0,0-3.01,8.886,8.886,0,0,0-3.414-5.6,8.842,8.842,0,0,0-4.579-1.757A8.92,8.92,0,0,0,7459.836-5842.692Z" transform="translate(-7386.894 5863.277)"/><path d="M5591.753-5840.245c-.964.964-1.753,1.759-1.753,1.764s1.176,1.186,2.611,2.622l2.612,2.612-2.612,2.612c-1.436,1.435-2.611,2.616-2.611,2.621s3.5,3.519,3.519,3.519,1.186-1.176,2.622-2.611l2.612-2.612,2.612,2.612c1.435,1.436,2.617,2.611,2.621,2.611s3.519-3.505,3.519-3.519-1.175-1.186-2.611-2.621l-2.612-2.612,2.612-2.612c1.436-1.436,2.611-2.616,2.611-2.622s-3.5-3.519-3.519-3.519-1.186,1.176-2.621,2.611l-2.612,2.612-2.612-2.612c-1.436-1.436-2.616-2.611-2.622-2.611S5592.719-5841.211,5591.753-5840.245Z" transform="translate(-5544.293 5862.589)"/><path d="M16.328-13.02l-2.105,2.009a6.524,6.524,0,0,0-4.834-2.267A5.2,5.2,0,0,0,5.57-11.73,5.173,5.173,0,0,0,4.018-7.917a5.629,5.629,0,0,0,.688,2.8A4.924,4.924,0,0,0,6.649-3.19a5.653,5.653,0,0,0,2.793.7,5.766,5.766,0,0,0,2.4-.489,8.583,8.583,0,0,0,2.385-1.778l2.041,2.127A11.2,11.2,0,0,1,12.955-.263,9.033,9.033,0,0,1,9.4.4,8.185,8.185,0,0,1,3.368-1.939,8.088,8.088,0,0,1,1.021-7.928a8.2,8.2,0,0,1,1.069-4.2,7.948,7.948,0,0,1,3.062-2.954A8.634,8.634,0,0,1,9.442-16.2a8.961,8.961,0,0,1,3.765.827A9,9,0,0,1,16.328-13.02ZM21.369-15.8H24.42V-9.84h5.285V-15.8h3.04V0h-3.04V-6.929H24.42V0H21.369Zm22.207,0h3.051L52.707,0H49.581L48.346-3.255H41.9L40.611,0H37.486Zm1.547,4.189L43.018-6.187h4.2ZM57.243-15.8H60.23V0H57.243Zm8.8,0h2.879L75.7-5.4V-15.8h3.008V0H75.82L69.052-10.366V0H66.044Z" transform="translate(86.849 36.866)" stroke="#000" stroke-width="1"/><path d="M.956-7.9H2.53a9.061,9.061,0,0,1,1.826.118A2.026,2.026,0,0,1,5.462-7.1a1.972,1.972,0,0,1,.43,1.3,1.992,1.992,0,0,1-.419,1.3,2.061,2.061,0,0,1-1.155.69,10.208,10.208,0,0,1-2.009.129H1.746V0H.956Zm.79.768v2.686l1.337.016A3.492,3.492,0,0,0,4.27-4.579a1.217,1.217,0,0,0,.591-.478A1.325,1.325,0,0,0,5.076-5.8a1.307,1.307,0,0,0-.215-.728,1.186,1.186,0,0,0-.567-.47,3.4,3.4,0,0,0-1.152-.14ZM7.235-8.1h.752V0H7.235Zm8.137,2.256V0h-.741V-1A3.223,3.223,0,0,1,13.57-.14a2.868,2.868,0,0,1-1.286.29,2.853,2.853,0,0,1-2.119-.9,3.017,3.017,0,0,1-.878-2.189A2.961,2.961,0,0,1,10.173-5.1a2.89,2.89,0,0,1,2.132-.9,2.757,2.757,0,0,1,1.3.306,2.964,2.964,0,0,1,1.023.918V-5.844Zm-3.008.575a2.269,2.269,0,0,0-1.16.309,2.265,2.265,0,0,0-.846.867,2.374,2.374,0,0,0-.314,1.182,2.378,2.378,0,0,0,.317,1.182,2.307,2.307,0,0,0,.851.878,2.225,2.225,0,0,0,1.147.314A2.351,2.351,0,0,0,13.53-.849a2.178,2.178,0,0,0,.851-.843,2.407,2.407,0,0,0,.3-1.2,2.328,2.328,0,0,0-.669-1.7A2.215,2.215,0,0,0,12.364-5.269Zm4.071-.575h.795l2.009,4.5,1.95-4.5h.8L18.5,2.138h-.795L18.836-.44Zm11.559,0h.757v4.657a5.5,5.5,0,0,1-.215,1.8,2.339,2.339,0,0,1-1.026,1.241,3.372,3.372,0,0,1-1.756.435A4.028,4.028,0,0,1,24.4,2.076a2.7,2.7,0,0,1-.975-.569A3.387,3.387,0,0,1,22.736.462h.816a2.155,2.155,0,0,0,.859.859,2.76,2.76,0,0,0,1.305.279,2.687,2.687,0,0,0,1.3-.287,1.758,1.758,0,0,0,.755-.722,3.225,3.225,0,0,0,.226-1.4v-.3a2.846,2.846,0,0,1-1.037.824,3.022,3.022,0,0,1-1.3.287,3.033,3.033,0,0,1-1.515-.4,2.841,2.841,0,0,1-1.1-1.077,2.946,2.946,0,0,1-.387-1.488,2.984,2.984,0,0,1,.4-1.512,2.959,2.959,0,0,1,1.115-1.109,2.972,2.972,0,0,1,1.5-.408,2.793,2.793,0,0,1,1.222.271,3.371,3.371,0,0,1,1.093.894Zm-2.218.575a2.377,2.377,0,0,0-1.187.309,2.238,2.238,0,0,0-.859.854,2.336,2.336,0,0,0-.312,1.179,2.127,2.127,0,0,0,.645,1.59,2.292,2.292,0,0,0,1.67.628A2.271,2.271,0,0,0,27.4-1.332a2.2,2.2,0,0,0,.631-1.638,2.373,2.373,0,0,0-.29-1.179,2.114,2.114,0,0,0-.822-.819A2.286,2.286,0,0,0,25.776-5.269Zm4.3-.575h.768v.854a2.7,2.7,0,0,1,.725-.755,1.43,1.43,0,0,1,.795-.25,1.372,1.372,0,0,1,.666.2l-.392.634a1.046,1.046,0,0,0-.4-.1,1.087,1.087,0,0,0-.725.309A1.953,1.953,0,0,0,30.986-4a9.194,9.194,0,0,0-.14,2.02V0h-.768Zm6.316-.15a2.887,2.887,0,0,1,2.234.978,3.044,3.044,0,0,1,.806,2.111,3.044,3.044,0,0,1-.851,2.14A2.854,2.854,0,0,1,36.395.15,2.861,2.861,0,0,1,34.2-.765a3.044,3.044,0,0,1-.851-2.14,3.037,3.037,0,0,1,.806-2.105A2.886,2.886,0,0,1,36.395-5.994Zm0,.736a2.158,2.158,0,0,0-1.606.693,2.32,2.32,0,0,0-.671,1.676,2.383,2.383,0,0,0,.306,1.182,2.173,2.173,0,0,0,.827.846,2.263,2.263,0,0,0,1.144.3,2.263,2.263,0,0,0,1.144-.3,2.173,2.173,0,0,0,.827-.846,2.383,2.383,0,0,0,.306-1.182A2.315,2.315,0,0,0,38-4.565,2.161,2.161,0,0,0,36.395-5.258Zm4.34-.585h.757v2.729A5.831,5.831,0,0,0,41.6-1.74a1.533,1.533,0,0,0,.615.849A1.865,1.865,0,0,0,43.3-.58a1.825,1.825,0,0,0,1.066-.3,1.552,1.552,0,0,0,.6-.8,5.641,5.641,0,0,0,.113-1.434V-5.844h.768v2.868a4.536,4.536,0,0,1-.282,1.821,2.154,2.154,0,0,1-.849.959A2.681,2.681,0,0,1,43.3.15,2.71,2.71,0,0,1,41.87-.2a2.136,2.136,0,0,1-.854-.967,4.723,4.723,0,0,1-.282-1.866Zm6.784,0h.752V-4.8a3.143,3.143,0,0,1,1-.9,2.455,2.455,0,0,1,1.192-.3,2.072,2.072,0,0,1,1.163.333,1.984,1.984,0,0,1,.749.9,4.743,4.743,0,0,1,.242,1.756V0h-.747V-2.788a6.69,6.69,0,0,0-.086-1.348,1.5,1.5,0,0,0-.5-.873,1.514,1.514,0,0,0-.967-.293,1.854,1.854,0,0,0-1.222.451,2.114,2.114,0,0,0-.712,1.117,7.77,7.77,0,0,0-.107,1.59V0h-.752ZM60.06-8.1V0h-.741V-1a3.223,3.223,0,0,1-1.061.865,2.868,2.868,0,0,1-1.286.29,2.853,2.853,0,0,1-2.119-.9,3.017,3.017,0,0,1-.878-2.189A2.961,2.961,0,0,1,54.86-5.1a2.89,2.89,0,0,1,2.132-.9,2.757,2.757,0,0,1,1.3.306,2.964,2.964,0,0,1,1.023.918V-8.1ZM57.052-5.269a2.269,2.269,0,0,0-1.16.309,2.265,2.265,0,0,0-.846.867,2.374,2.374,0,0,0-.314,1.182,2.378,2.378,0,0,0,.317,1.182,2.307,2.307,0,0,0,.851.878,2.225,2.225,0,0,0,1.147.314,2.351,2.351,0,0,0,1.171-.312,2.178,2.178,0,0,0,.851-.843,2.407,2.407,0,0,0,.3-1.2,2.328,2.328,0,0,0-.669-1.7A2.215,2.215,0,0,0,57.052-5.269Z" transform="translate(104.896 48.664)" stroke="#000" stroke-width="1"/></g></svg>